<?xml version="1.0" encoding="UTF-8" standalone="no"?>
<svg width="16px" height="16px" viewBox="0 0 16 16" version="1.1" xmlns="http://www.w3.org/2000/svg" xmlns:xlink="http://www.w3.org/1999/xlink">
    <!-- Generator: Sketch 45.1 (43504) - http://www.bohemiancoding.com/sketch -->
    <title>icon / 32x32 /speech bubble</title>
    <desc>Created with Sketch.</desc>
    <defs>
        <path d="M2.8,15.5 L2.45,15.5 C2.25,15.5 2.1,15.35 2,15.15 C1.95,14.95 2,14.75 2.15,14.6 C3,13.8 3.45,13.05 3.65,12.45 C1.4,11.25 0,9.2 0,7 C0,3.4 3.6,0.5 8,0.5 C12.4,0.5 16,3.4 16,7 C16,10.5 12.55,13.4 8.25,13.5 C6.55,15.35 3.8,15.5 2.8,15.5 Z M8,1.5 C4.15,1.5 1,3.95 1,7 C1,8.95 2.35,10.75 4.5,11.75 C4.7,11.85 4.85,12.1 4.75,12.35 C4.6,12.9 4.3,13.65 3.65,14.45 C4.8,14.35 6.55,13.95 7.65,12.65 C7.75,12.55 7.9,12.5 8.05,12.5 C11.85,12.5 15,10 15,7 C15,3.95 11.85,1.5 8,1.5 Z" id="path-1"></path>
    </defs>
    <g id="Home-Page---Member" stroke="none" stroke-width="1" fill="none" fill-rule="evenodd">
        <g id="home-page" transform="translate(-440.000000, -1355.000000)">
            <g id="article-2" transform="translate(0.000000, 1277.000000)">
                <g id="icon-/-32x32-/speech-bubble" transform="translate(440.000000, 78.000000)">
                    <mask id="mask-2" fill="white">
                        <use xlink:href="#path-1"></use>
                    </mask>
                    <g id="tint-/-16-.gr2-#AEB8BF" mask="url(#mask-2)" fill-rule="evenodd" fill="#AEB8BF">
                        <rect id="tint-/-AEB8BF" x="0" y="0" width="16" height="16"></rect>
                    </g>
                </g>
            </g>
        </g>
    </g>
</svg>
